<?xml version="1.0" encoding="UTF-8"?>
<svg version="1.1" xmlns="http://www.w3.org/2000/svg" width="1024" height="1024">
<path d="M0 0 C337.92 0 675.84 0 1024 0 C1024 337.92 1024 675.84 1024 1024 C686.08 1024 348.16 1024 0 1024 C0 686.08 0 348.16 0 0 Z " fill="#FDFDF8" transform="translate(0,0)"/>
<path d="M0 0 C5.01652323 4.29987706 9.82912183 8.80824459 14.60302734 13.37402344 C15.28107422 14.01082031 15.95912109 14.64761719 16.65771484 15.30371094 C21.28624413 19.7616032 25.26137641 24.71835366 29.27392578 29.72851562 C30.7050425 31.50032435 32.15611511 33.2543659 33.61083984 35.00683594 C40.02319349 42.76076395 46.09680473 50.67924949 51.93798828 58.87231445 C55.07892035 63.27636485 58.27970657 67.60578431 61.60302734 71.87402344 C65.55736108 76.95816681 69.34935923 82.14021945 73.10302734 87.37402344 C77.59117164 93.62782473 82.17129407 99.77789127 86.89208984 105.85839844 C90.25747076 110.20460573 93.55484597 114.60172805 96.85302734 118.99902344 C97.4855542 119.84190918 98.11808105 120.68479492 98.76977539 121.55322266 C102.04889106 125.93228697 105.30726072 130.32530832 108.53662109 134.74121094 C109.48263184 136.03357666 109.48263184 136.03357666 110.44775391 137.35205078 C111.64695402 138.99324543 112.84308476 140.63668872 114.03564453 142.28271484 C116.68705182 145.91282422 119.27016907 149.32498521 122.60302734 152.37402344 C122.94333984 151.90843018 123.28365234 151.44283691 123.63427734 150.96313477 C130.53594974 141.53184342 137.499603 132.15452701 144.60302734 122.87402344 C152.65600962 112.34744537 160.52375359 101.69168374 168.34423828 90.99169922 C175.25761307 81.53545177 182.25647013 72.16776452 189.48266602 62.94775391 C193.36181779 57.99297196 197.16005667 52.98553175 200.91552734 47.93652344 C208.35313711 37.97453132 216.2089674 28.55997271 224.71240234 19.49511719 C227.17935046 16.85734334 229.51501678 14.12698626 231.85302734 11.37402344 C254.2645021 -13.40712338 287.52258958 -28.42061404 320.60302734 -30.62597656 C331.76354075 -31.17921856 342.98836444 -31.65871266 353.60302734 -27.62597656 C355.4641083 -25.76489561 354.73363887 -22.6573177 354.73724842 -20.17344952 C354.73960065 -19.48801434 354.74195288 -18.80257917 354.74437639 -18.09637323 C354.75109987 -15.77066948 354.75060717 -13.44502116 354.75019836 -11.11930847 C354.75349491 -9.44662636 354.75722003 -7.77394506 354.76133984 -6.10126477 C354.77139178 -1.48220642 354.77508175 3.13683895 354.77772915 7.7559067 C354.78162277 12.7287512 354.79120171 17.70158532 354.79994202 22.67442322 C354.81973302 34.69489147 354.8297759 46.71536059 354.83866981 58.73584107 C354.84304833 64.39024173 354.84841626 70.04464145 354.85365868 75.69904137 C354.87067347 94.48482093 354.88516901 113.2705999 354.89240742 132.05638599 C354.89431745 136.93480747 354.89623776 141.81322894 354.89819336 146.69165039 C354.8986771 147.90422524 354.89916084 149.1168001 354.89965924 150.36611965 C354.9079646 170.02162334 354.93330894 189.67706627 354.96577404 209.33254341 C354.99880133 229.49201684 355.01685225 249.65145935 355.02005166 269.81095999 C355.02222076 281.13805289 355.03102773 292.46505719 355.05651283 303.79212379 C355.07816076 313.43626751 355.08629949 323.08030111 355.07654605 332.72446636 C355.07198416 337.64847784 355.07399662 342.57226186 355.0933075 347.49624252 C355.11081786 351.9998551 355.11004105 356.50307225 355.0944102 361.00668832 C355.09201555 362.63996715 355.09645285 364.27327251 355.10823885 365.90651057 C355.12322513 368.11948554 355.11377973 370.33103511 355.09801197 372.54397297 C355.09898878 373.77524365 355.09996559 375.00651433 355.100972 376.27509624 C354.50787536 379.96619583 353.48567076 381.08434727 350.60302734 383.37402344 C346.87341777 386.02330968 342.75044463 385.66966229 338.34960938 385.66455078 C337.51985596 385.67126801 336.69010254 385.67798523 335.83520508 385.68490601 C333.09368899 385.7038953 330.3524176 385.70781066 327.61083984 385.70996094 C325.70278828 385.71638822 323.79473772 385.72311653 321.88668823 385.73013306 C317.88700068 385.74210815 313.88739952 385.74581364 309.88769531 385.74462891 C304.76743132 385.74442571 299.64772229 385.77172806 294.5275898 385.80617332 C290.58643052 385.82843217 286.645405 385.83246676 282.7041893 385.83140945 C280.81677208 385.83376693 278.92935125 385.84259872 277.041996 385.85807419 C274.39934902 385.87771371 271.75790149 385.87190444 269.11523438 385.85986328 C268.3389267 385.87110229 267.56261902 385.88234131 266.76278687 385.8939209 C261.5589955 385.83379776 258.59252611 384.69293219 254.60302734 381.37402344 C251.9397393 377.37909137 252.3144697 373.88306929 252.32455444 369.24360657 C252.31876204 368.2977427 252.31296964 367.35187883 252.30700171 366.37735242 C252.28993833 363.19432388 252.28711975 360.01143978 252.28417969 356.82836914 C252.27488589 354.55208986 252.26471805 352.27581401 252.2537384 349.99954224 C252.22636256 343.80777587 252.21126655 337.61603235 252.19831038 331.42422128 C252.18271296 324.95793289 252.15591199 318.49169139 252.13027954 312.0254364 C252.0887591 301.16825606 252.05418182 290.31107694 252.02490234 279.45385742 C251.9947237 268.27024496 251.9603766 257.08665813 251.92041016 245.90307617 C251.91671783 244.86926446 251.91671783 244.86926446 251.91295092 243.81456766 C251.90057645 240.35705886 251.88811989 236.89955036 251.87562251 233.44204199 C251.77202947 204.75273867 251.68298213 176.06340183 251.60302734 147.37402344 C250.18886319 149.09031568 248.77644971 150.8080505 247.36474609 152.52636719 C246.57801514 153.482771 245.79128418 154.4391748 244.98071289 155.42456055 C241.93753319 159.19955325 239.05203458 163.07938978 236.16162109 166.97167969 C233.16184209 170.98695274 230.06597421 174.92643931 226.97802734 178.87402344 C221.20323407 186.26512899 215.54830426 193.73941561 209.93530273 201.25390625 C205.6922003 206.93208594 201.39550532 212.5628579 197.06005859 218.17089844 C194.20483884 221.87812605 191.4049615 225.62645862 188.60302734 229.37402344 C183.77318658 235.831909 178.88134433 242.23708447 173.95410156 248.62109375 C167.06783207 257.55557423 160.22546824 266.52171092 153.47802734 275.56152344 C148.83853215 281.77334264 144.09014847 287.88932237 139.28271484 293.97167969 C133.96756485 300.70225607 128.73290173 307.50130711 123.60302734 314.37402344 C120.44343572 313.01512318 118.73465783 311.62997711 116.68505859 308.88183594 C116.15759033 308.1828418 115.63012207 307.48384766 115.08666992 306.76367188 C114.53519287 306.01633789 113.98371582 305.26900391 113.41552734 304.49902344 C112.83891357 303.73106445 112.2622998 302.96310547 111.66821289 302.171875 C109.97267335 299.91115561 108.28714949 297.64325419 106.60302734 295.37402344 C105.77055856 294.26139689 104.93732982 293.14933816 104.10302734 292.03808594 C102.65063483 290.10329162 101.20009725 288.1671034 99.75146484 286.22949219 C97.13410012 282.75077653 94.47923878 279.30192496 91.82055664 275.85473633 C82.45393547 263.7016737 73.16380889 251.48970106 63.97729492 239.19995117 C59.77222404 233.58151917 55.50957213 228.00815181 51.24023438 222.43847656 C48.23541819 218.51609739 45.24800853 214.58232525 42.29052734 210.62402344 C37.53895799 204.26543337 32.71680567 197.96126963 27.89990234 191.65209961 C23.16204917 185.43918159 18.46615579 179.19635632 13.79052734 172.93652344 C8.54793882 165.92080728 3.22018953 158.98347585 -2.22509766 152.12402344 C-3.98413145 149.89675763 -5.69983027 147.64821853 -7.39697266 145.37402344 C-7.39659563 146.57538783 -7.39621861 147.77675222 -7.39583015 149.0145216 C-7.38821805 177.52619808 -7.41146487 206.03773861 -7.47276295 234.54934804 C-7.48027908 238.05788196 -7.48753455 241.56641637 -7.49462891 245.07495117 C-7.49675403 246.12268963 -7.49675403 246.12268963 -7.49892209 247.19159452 C-7.52124663 258.50466309 -7.52244999 269.81764047 -7.51586129 281.13072493 C-7.50957136 292.73719361 -7.52639526 304.34345759 -7.56340873 315.94986945 C-7.58346682 322.46987072 -7.59294101 328.98950553 -7.57739639 335.50952721 C-7.56310218 341.64346455 -7.57670674 347.77670046 -7.61192513 353.91054726 C-7.61990896 356.16440199 -7.61760564 358.41831968 -7.6043644 360.67214966 C-7.58783295 363.74533981 -7.60799394 366.81616335 -7.63748169 369.88920593 C-7.62389559 370.78512363 -7.61030949 371.68104132 -7.59631169 372.60410804 C-7.70664267 378.50382391 -7.70664267 378.50382391 -9.71298003 381.03292429 C-14.58197417 385.18947743 -18.18781324 385.52979694 -24.33154297 385.55102539 C-25.15125076 385.55759659 -25.97095856 385.56416779 -26.81550598 385.57093811 C-29.53537076 385.59069065 -32.25518024 385.60233876 -34.97509766 385.61230469 C-36.36776478 385.61841798 -36.36776478 385.61841798 -37.78856659 385.62465477 C-42.7037687 385.64552502 -47.61894283 385.65982194 -52.53417969 385.66918945 C-57.60963027 385.68024885 -62.68464182 385.71464058 -67.75993729 385.75436115 C-71.66333832 385.78051803 -75.56663469 385.78888052 -79.47011566 385.79247093 C-81.34079703 385.79734022 -83.21147362 385.80896394 -85.0820694 385.82750893 C-87.70334025 385.85187815 -90.32347457 385.85093945 -92.94482422 385.84399414 C-94.09997276 385.86320923 -94.09997276 385.86320923 -95.27845764 385.8828125 C-100.83275045 385.82928753 -104.45275399 384.31824211 -108.39697266 380.37402344 C-108.49772513 378.21802129 -108.52622181 376.0586463 -108.52840042 373.9002924 C-108.53045305 373.21256966 -108.53250569 372.52484691 -108.53462052 371.81628409 C-108.54033148 369.48281632 -108.53882828 367.14940681 -108.53741455 364.81593323 C-108.53999584 363.13770111 -108.54300833 361.45946961 -108.54641795 359.78123897 C-108.55451887 355.14691594 -108.55627923 350.51260837 -108.55701542 345.87827909 C-108.5588606 340.88911417 -108.56640515 335.89995737 -108.57315063 330.91079712 C-108.58675595 319.99164989 -108.59276196 309.07250632 -108.59716129 298.15335202 C-108.59991975 291.3418827 -108.60415634 284.53041481 -108.60866547 277.71894646 C-108.62086052 258.87826025 -108.63115968 240.03757518 -108.63454056 221.19688511 C-108.63476012 219.99010557 -108.63497969 218.78332604 -108.63520591 217.53997743 C-108.63542419 216.33023261 -108.63564247 215.1204878 -108.63586736 213.87408406 C-108.63631083 211.42248507 -108.63675739 208.97088609 -108.63720703 206.51928711 C-108.63742846 205.30319702 -108.63764989 204.08710693 -108.63787803 202.83416563 C-108.64182857 183.11589085 -108.65928933 163.39765298 -108.68256655 143.67939246 C-108.70624498 123.45890778 -108.71874079 103.23844163 -108.71990848 83.01794285 C-108.72082717 71.6551611 -108.7266281 60.29242744 -108.74472809 48.92965889 C-108.76008176 39.25655756 -108.76527765 29.58351916 -108.75698999 19.91040797 C-108.75306673 14.97048082 -108.75409413 10.03068058 -108.76804733 5.09076881 C-108.78068653 0.57498062 -108.77967768 -3.94058399 -108.76745662 -8.45637143 C-108.76548215 -10.09634146 -108.76865762 -11.73632679 -108.77730098 -13.37627523 C-108.78825253 -15.59326269 -108.78100837 -17.80944117 -108.76890945 -20.02640438 C-108.76950654 -21.26147226 -108.77010363 -22.49654014 -108.77071881 -23.76903433 C-108.64738258 -24.71182526 -108.52404635 -25.6546162 -108.39697266 -26.62597656 C-104.96806556 -28.91191463 -102.12957699 -29.29231644 -98.14697266 -29.75097656 C-97.0805957 -29.87617676 -97.0805957 -29.87617676 -95.99267578 -30.00390625 C-61.11557521 -33.78817978 -26.82954858 -22.3844658 0 0 Z " fill="#009593" transform="translate(389.39697265625,334.6259765625)"/>
<path d="M0 0 C5.01652323 4.29987706 9.82912183 8.80824459 14.60302734 13.37402344 C15.28107422 14.01082031 15.95912109 14.64761719 16.65771484 15.30371094 C21.28624413 19.7616032 25.26137641 24.71835366 29.27392578 29.72851562 C30.7050425 31.50032435 32.15611511 33.2543659 33.61083984 35.00683594 C40.02319349 42.76076395 46.09680473 50.67924949 51.93798828 58.87231445 C55.07892035 63.27636485 58.27970657 67.60578431 61.60302734 71.87402344 C65.55736108 76.95816681 69.34935923 82.14021945 73.10302734 87.37402344 C77.59117164 93.62782473 82.17129407 99.77789127 86.89208984 105.85839844 C96.14698606 117.81059597 105.10559639 129.99908695 114.03564453 142.19482422 C114.57737305 142.9332959 115.11910156 143.67176758 115.67724609 144.43261719 C116.14735107 145.07513428 116.61745605 145.71765137 117.10180664 146.37963867 C118.62145231 148.47242955 118.62145231 148.47242955 120.66679001 150.57908154 C123.05667067 154.02885367 123.09703912 155.91974503 123.08404541 160.08747864 C123.08746311 160.74920269 123.09088081 161.41092675 123.09440207 162.09270304 C123.10097315 164.30256325 123.07901999 166.51119962 123.05712891 168.72094727 C123.05600025 170.30787121 123.05663464 171.89479724 123.05889893 173.48171997 C123.0600463 177.78518894 123.03653332 182.0882117 123.0086031 186.39157701 C122.98359334 190.89056017 122.98124778 195.38955363 122.97650146 199.88859558 C122.96407043 208.40606783 122.93124711 216.92333465 122.89110351 225.44071645 C122.84638976 235.1383214 122.82439976 244.83593618 122.80432177 254.53361857 C122.76251459 274.48053484 122.69216004 294.4272662 122.60302734 314.37402344 C117.0901899 308.89374707 117.0901899 308.89374707 115.02490234 306.24511719 C114.59105225 305.69138428 114.15720215 305.13765137 113.71020508 304.56713867 C113.0384021 303.69810913 113.0384021 303.69810913 112.35302734 302.81152344 C111.87486572 302.19801025 111.3967041 301.58449707 110.90405273 300.95239258 C107.15217839 296.1230313 103.47661893 291.2381111 99.82177734 286.33496094 C97.18597219 282.8174604 94.50552171 279.3358835 91.82104492 275.85546875 C82.45458802 263.70190253 73.16398887 251.48994184 63.97729492 239.19995117 C59.77222404 233.58151917 55.50957213 228.00815181 51.24023438 222.43847656 C48.23541819 218.51609739 45.24800853 214.58232525 42.29052734 210.62402344 C37.53895799 204.26543337 32.71680567 197.96126963 27.89990234 191.65209961 C23.16204917 185.43918159 18.46615579 179.19635632 13.79052734 172.93652344 C8.54793882 165.92080728 3.22018953 158.98347585 -2.22509766 152.12402344 C-3.98413145 149.89675763 -5.69983027 147.64821853 -7.39697266 145.37402344 C-7.39659563 146.57538783 -7.39621861 147.77675222 -7.39583015 149.0145216 C-7.38821805 177.52619808 -7.41146487 206.03773861 -7.47276295 234.54934804 C-7.48027908 238.05788196 -7.48753455 241.56641637 -7.49462891 245.07495117 C-7.49675403 246.12268963 -7.49675403 246.12268963 -7.49892209 247.19159452 C-7.52124663 258.50466309 -7.52244999 269.81764047 -7.51586129 281.13072493 C-7.50957136 292.73719361 -7.52639526 304.34345759 -7.56340873 315.94986945 C-7.58346682 322.46987072 -7.59294101 328.98950553 -7.57739639 335.50952721 C-7.56310218 341.64346455 -7.57670674 347.77670046 -7.61192513 353.91054726 C-7.61990896 356.16440199 -7.61760564 358.41831968 -7.6043644 360.67214966 C-7.58783295 363.74533981 -7.60799394 366.81616335 -7.63748169 369.88920593 C-7.62389559 370.78512363 -7.61030949 371.68104132 -7.59631169 372.60410804 C-7.70664267 378.50382391 -7.70664267 378.50382391 -9.71298003 381.03292429 C-14.58197417 385.18947743 -18.18781324 385.52979694 -24.33154297 385.55102539 C-25.15125076 385.55759659 -25.97095856 385.56416779 -26.81550598 385.57093811 C-29.53537076 385.59069065 -32.25518024 385.60233876 -34.97509766 385.61230469 C-36.36776478 385.61841798 -36.36776478 385.61841798 -37.78856659 385.62465477 C-42.7037687 385.64552502 -47.61894283 385.65982194 -52.53417969 385.66918945 C-57.60963027 385.68024885 -62.68464182 385.71464058 -67.75993729 385.75436115 C-71.66333832 385.78051803 -75.56663469 385.78888052 -79.47011566 385.79247093 C-81.34079703 385.79734022 -83.21147362 385.80896394 -85.0820694 385.82750893 C-87.70334025 385.85187815 -90.32347457 385.85093945 -92.94482422 385.84399414 C-94.09997276 385.86320923 -94.09997276 385.86320923 -95.27845764 385.8828125 C-100.83275045 385.82928753 -104.45275399 384.31824211 -108.39697266 380.37402344 C-108.49772513 378.21802129 -108.52622181 376.0586463 -108.52840042 373.9002924 C-108.53045305 373.21256966 -108.53250569 372.52484691 -108.53462052 371.81628409 C-108.54033148 369.48281632 -108.53882828 367.14940681 -108.53741455 364.81593323 C-108.53999584 363.13770111 -108.54300833 361.45946961 -108.54641795 359.78123897 C-108.55451887 355.14691594 -108.55627923 350.51260837 -108.55701542 345.87827909 C-108.5588606 340.88911417 -108.56640515 335.89995737 -108.57315063 330.91079712 C-108.58675595 319.99164989 -108.59276196 309.07250632 -108.59716129 298.15335202 C-108.59991975 291.3418827 -108.60415634 284.53041481 -108.60866547 277.71894646 C-108.62086052 258.87826025 -108.63115968 240.03757518 -108.63454056 221.19688511 C-108.63476012 219.99010557 -108.63497969 218.78332604 -108.63520591 217.53997743 C-108.63542419 216.33023261 -108.63564247 215.1204878 -108.63586736 213.87408406 C-108.63631083 211.42248507 -108.63675739 208.97088609 -108.63720703 206.51928711 C-108.63742846 205.30319702 -108.63764989 204.08710693 -108.63787803 202.83416563 C-108.64182857 183.11589085 -108.65928933 163.39765298 -108.68256655 143.67939246 C-108.70624498 123.45890778 -108.71874079 103.23844163 -108.71990848 83.01794285 C-108.72082717 71.6551611 -108.7266281 60.29242744 -108.74472809 48.92965889 C-108.76008176 39.25655756 -108.76527765 29.58351916 -108.75698999 19.91040797 C-108.75306673 14.97048082 -108.75409413 10.03068058 -108.76804733 5.09076881 C-108.78068653 0.57498062 -108.77967768 -3.94058399 -108.76745662 -8.45637143 C-108.76548215 -10.09634146 -108.76865762 -11.73632679 -108.77730098 -13.37627523 C-108.78825253 -15.59326269 -108.78100837 -17.80944117 -108.76890945 -20.02640438 C-108.76950654 -21.26147226 -108.77010363 -22.49654014 -108.77071881 -23.76903433 C-108.64738258 -24.71182526 -108.52404635 -25.6546162 -108.39697266 -26.62597656 C-104.96806556 -28.91191463 -102.12957699 -29.29231644 -98.14697266 -29.75097656 C-97.0805957 -29.87617676 -97.0805957 -29.87617676 -95.99267578 -30.00390625 C-61.11557521 -33.78817978 -26.82954858 -22.3844658 0 0 Z " fill="#002747" transform="translate(389.39697265625,334.6259765625)"/>
<path d="M0 0 C0.66 0.99 1.32 1.98 2 3 C-1.3 6.3 -4.6 9.6 -8 13 C-8 9.00717059 -6.52191924 7.84668408 -4 4.8125 C-3.2575 3.91144531 -2.515 3.01039063 -1.75 2.08203125 C-1.1725 1.39496094 -0.595 0.70789063 0 0 Z " fill="#028887" transform="translate(558,426)"/>
<path d="M0 0 C1.32 0 2.64 0 4 0 C4 1.98 4 3.96 4 6 C3.01 6 2.02 6 1 6 C0.67 4.02 0.34 2.04 0 0 Z " fill="#082C4D" transform="translate(507,640)"/>
<path d="M0 0 C0 3.66184524 -0.919642 5.02806 -3 8 C-5.1875 9.8125 -5.1875 9.8125 -7 11 C-5.5140084 6.40693504 -3.14985318 3.56430755 0 0 Z " fill="#058685" transform="translate(548,439)"/>
<path d="M0 0 C0.33 0.99 0.66 1.98 1 3 C-3.75 6 -3.75 6 -6 6 C-4.95125002 3.37812506 -4.35068687 2.20628639 -1.875 0.75 C-1.25625 0.5025 -0.6375 0.255 0 0 Z " fill="#0A8D8D" transform="translate(646,326)"/>
<path d="M0 0 C5.75 0.875 5.75 0.875 8 2 C7.67 2.99 7.34 3.98 7 5 C4.525 4.01 4.525 4.01 2 3 C2 2.34 2 1.68 2 1 C1.34 0.67 0.68 0.34 0 0 Z " fill="#021936" transform="translate(345,311)"/>
</svg>
